<svg xmlns="http://www.w3.org/2000/svg" version="1.1" viewBox="-10.0 -10.0 100.0 100.0">
 <path stroke="white" fill="white" d="m46.242 78.324v-28.594h12.449c-0.085937 2.7148-0.34766 5.2891-0.74219 7.7109 1.332-0.85938 2.7852-1.5977 4.3359-2.1914 0.20703-1.793 0.35156-3.6328 0.40625-5.5195h12.422c-0.085937 1.3594-0.28125 2.6914-0.53906 3.9961 1.3594 0.15234 2.6797 0.40625 3.9531 0.75391 0.42578-2.1836 0.65625-4.4414 0.65625-6.75 0-19.301-15.645-34.945-34.945-34.945-19.297 0.003906-34.941 15.648-34.941 34.949s15.645 34.945 34.945 34.945c3.0195 0 5.9492-0.38281 8.7422-1.1016-1.3711-1.7461-2.3828-3.6992-2.9609-5.7852-1.2266 1.2188-2.5 2.0938-3.7812 2.5352zm28.871-32.59h-12.422c-0.33984-11.402-3.5742-21.336-8.332-27.238 11.504 3.9922 19.941 14.59 20.754 27.238zm-28.871-28.594c5.9961 2.0703 11.969 13.156 12.449 28.594h-12.449zm-12.121 1.3555c-4.7578 5.8984-7.9922 15.836-8.332 27.238h-12.422c0.8125-12.645 9.25-23.242 20.754-27.238zm-20.754 31.238h12.422c0.33984 11.402 3.5742 21.336 8.332 27.238-11.504-3.9922-19.941-14.59-20.754-27.238zm28.875 28.59c-5.9961-2.0703-11.969-13.156-12.449-28.594h12.449zm0-32.59h-12.449c0.48047-15.438 6.4492-26.523 12.449-28.594zm44.625 35.117c2.3984-2.5391 3.8359-5.6797 3.8359-9.0977 0-8.3906-8.5586-15.191-19.117-15.191-10.559 0-19.117 6.8008-19.117 15.191s8.5586 15.191 19.117 15.191c3.8281 0 7.3906-0.90234 10.379-2.4453l5.9844 2.625c0.86328 0.37891 1.7305-0.52344 1.3164-1.3711zm-23.277-6.4648c-1.3789 0-2.5-1.1211-2.5-2.5 0-1.3789 1.1211-2.5 2.5-2.5s2.5 1.1211 2.5 2.5c0 1.3789-1.1211 2.5-2.5 2.5zm7.9961 0c-1.3789 0-2.5-1.1211-2.5-2.5 0-1.3789 1.1211-2.5 2.5-2.5 1.3789 0 2.5 1.1211 2.5 2.5 0 1.3789-1.1211 2.5-2.5 2.5zm7.9961 0c-1.3789 0-2.5-1.1211-2.5-2.5 0-1.3789 1.1211-2.5 2.5-2.5 1.3789 0 2.5 1.1211 2.5 2.5 0 1.3789-1.1211 2.5-2.5 2.5z"/></svg>