<!DOCTYPE svg PUBLIC "-//W3C//DTD SVG 1.1//EN" "http://www.w3.org/Graphics/SVG/1.1/DTD/svg11.dtd">
<!-- Uploaded to: SVG Repo, www.svgrepo.com, Transformed by: SVG Repo Mixer Tools -->
<!-- <svg width="800px" height="800px" viewBox="0 0 24 24" fill="none" xmlns="http://www.w3.org/2000/svg">

<g id="SVGRepo_bgCarrier" stroke-width="0"/>

<g id="SVGRepo_tracerCarrier" stroke-linecap="round" stroke-linejoin="round"/>

<g id="SVGRepo_iconCarrier"> <path d="M8.10627 18.2468C5.29819 16.0833 2 13.5422 2 9.1371C2 4.27416 7.50016 0.825464 12 5.50063L14 7.49928C14.2929 7.79212 14.7678 7.79203 15.0607 7.49908C15.3535 7.20614 15.3534 6.73127 15.0605 6.43843L13.1285 4.50712C17.3685 1.40309 22 4.67465 22 9.1371C22 13.5422 18.7018 16.0833 15.8937 18.2468C15.6019 18.4717 15.3153 18.6925 15.0383 18.9109C14 19.7294 13 20.5 12 20.5C11 20.5 10 19.7294 8.96173 18.9109C8.68471 18.6925 8.39814 18.4717 8.10627 18.2468Z" fill="#fde047"/> </g>

</svg> -->

<svg xmlns="http://www.w3.org/2000/svg" version="1.1" viewBox="-5.0 -10.0 110.0 135.0">
 <g>
  <path stroke="white" fill="white" d="m45.59 45.914c-0.83594 0-1.5312 0.67578-1.5312 1.5117v2.6914c0 0.83594 0.69531 1.5117 1.5312 1.5117 0.83594 0 1.5312-0.67578 1.5312-1.5117v-2.6914c0-0.83203-0.69531-1.5117-1.5312-1.5117z"/>
  <path stroke="white" fill="white" d="m55.402 45.914c-0.83594 0-1.6211 0.67578-1.6211 1.5117v2.6914c0 0.83594 0.78516 1.5117 1.6211 1.5117 0.83594 0 1.6211-0.67578 1.6211-1.5117v-2.6914c-0.003907-0.83203-0.78516-1.5117-1.6211-1.5117z"/>
  <path stroke="white" fill="white" d="m64.039 53.473v-0.91406l1.7656-0.61328c0.49609-0.14844 0.57422-0.71484 0.57422-1.3203v-3.6992c0-0.60547-0.078125-1.1719-0.57422-1.3203l-1.7656-0.61328v-0.91406c0-2.1523-1.7383-4-3.8594-4.3672-1.6523-0.28516-3.4102-0.49219-5.0781-0.63281l-0.78125-2.5156c-0.1875-0.62109-0.94141-1.1445-1.6992-1.1445h-4.625c-0.75781 0-1.4648 0.52344-1.6523 1.1445l-0.73438 2.4766c-1.668 0.13672-3.1094 0.36719-4.7617 0.64844-2.1211 0.36328-3.4492 2.2305-3.4492 4.3828v0.91406l-2.4844 0.61328c-0.49609 0.14844-1.2969 0.71484-1.2969 1.3203v3.6992c0 0.60547 0.80078 1.1719 1.2969 1.3203l2.4844 0.61328v0.91406c0 2.1523 1.3242 4 3.4492 4.3672 3.2031 0.55078 6.332 0.82422 9.5703 0.82422s6.6133-0.27344 9.8164-0.82422c2.125-0.35938 3.8047-2.207 3.8047-4.3594zm-4.1367 0c0 0.16406-0.28125 0.30859-0.4375 0.33594-2.9609 0.50781-6.0664 0.76562-9.0703 0.76562-3.0039 0-6.1836-0.25781-9.1445-0.76562-0.15625-0.027344-0.42578-0.17188-0.42578-0.33594v-9.3984c0-0.16406 0.23047-0.30859 0.38672-0.33594 2.9609-0.50781 6.0391-0.76562 9.0469-0.76562 3.0039 0 6.2227 0.25781 9.1836 0.76562 0.15625 0.027344 0.46875 0.17188 0.46875 0.33594l-0.011718 9.3984z"/>
  <path stroke="white" fill="white" d="m48.402 32.402c0 1.0547 0.85547 1.9062 1.9062 1.9062 1.0547 0 1.9062-0.85547 1.9062-1.9062 0-1.0547-0.85547-1.9062-1.9062-1.9062-1.0547-0.003906-1.9062 0.85156-1.9062 1.9062z"/>
  <path stroke="white" fill="white" d="m16.148 23.137c0.77734 0.77734 2.0391 0.77734 2.8164 0 0.019531-0.019531 0.035156-0.039063 0.054687-0.0625 0.72266-0.78125 0.70312-1.9961-0.054687-2.7578l-5.3594-5.3594c-1.3672-1.3672-1.3672-3.5898 0-4.9531 0.65625-0.65625 1.5352-1.0195 2.4766-1.0195 0.94141 0 1.8086 0.36328 2.4648 1.0195l3.9141 3.9258v12.422c-0.53906-0.26172-1.6758-0.37109-2.5664-0.32031-1.9102 0.10938-3.6484 0.94922-4.918 2.3711l-0.050781 0.058594c-2.6211 2.9414-2.3594 7.4648 0.57812 10.086l2.0039 1.7852c-0.95312 0.40234-1.8359 1.0156-2.5703 1.8359-2.6367 2.957-2.375 7.5039 0.57812 10.141l1.9805 1.7656c-0.96875 0.40625-1.8398 1.0273-2.5586 1.832-2.6367 2.957-2.375 7.5039 0.57812 10.141l3.1758 2.8438c1.0703 0.95703 2.5039 1.5547 3.7617 1.7461v12.34c0 4.0664 3.3359 7.3359 7.3984 7.3359h37.184c1.1016 0 1.9922-0.87109 1.9922-1.9727 0-1.0039-0.74609-1.832-1.7109-1.9688-0.09375-0.011719-0.18359-0.019532-0.28125-0.019532l-37.176 0.007813c-1.8672 0-3.4375-1.5078-3.4375-3.375v-12.914c0.89844-0.40625 1.7344-0.99609 2.4062-1.7539 2.6367-2.957 2.3633-7.5039-0.59375-10.141l-1.8164-1.6055v-0.23828c0.89844-0.40625 1.7344-0.99609 2.4062-1.7539 2.6367-2.957 2.3633-7.5039-0.59375-10.141l-1.8164-1.6055v-0.21875c0.89844-0.39844 1.7148-0.98047 2.3984-1.7461l0.0625-0.058594c1.2656-1.4219 1.9102-3.2539 1.8008-5.1602-0.10938-1.9102-0.97266-3.6562-2.3945-4.9258l-1.8711-1.6484 0.011719-15.977c0-1.8672 1.5703-3.2383 3.4375-3.2383h40.242c1.8672 0 3.4766 1.3672 3.4766 3.2383l0.003906 12.543-1.0234-0.92578c-1.2578-1.2617-2.9727-1.8984-4.75-1.8984h-0.015625c-1.7852 0-3.4609 0.65234-4.7148 1.9258-2.1562 2.1875-2.4883 5.5859-0.80078 8.3086l10.188 16.422-3 3.293c-5.9727 6.0508-5.8984 14.18-5.8359 21.355 0.007813 0.77344 0.015625 1.5469 0.015625 2.3164 0 1.1016 0.89062 1.9922 1.9922 1.9922 1.1016 0 1.9922-0.89063 1.9922-1.9922 0-0.78516-0.007812-1.582-0.015625-2.3516-0.0625-7.0312-0.125-13.676 4.7109-18.547 0.019531-0.019531 0.039062-0.042968 0.058593-0.0625l4.0391-4.4453c0.59766-0.65625 0.6875-1.6328 0.21875-2.3906l-10.98-17.715c-0.70312-1.1328-0.59766-2.5352 0.25391-3.3945 0.50391-0.51172 1.1758-0.75391 1.8906-0.75391h0.007812c0.71094 0 1.3828 0.23438 1.8828 0.73828l16.844 16.879c0.58594 0.58984 0.91016 1.3477 0.91016 2.1758v24.043c0 2.3477-0.91406 4.5586-2.5742 6.2188l-5.5977 5.5781c-1.0977 1.0977-1.7227 2.5586-1.7227 4.1133v6.4805c0 1.1016 0.96875 1.9922 2.0703 1.9922s2.0703-0.89062 2.0703-1.9922v-6.4805c0-0.48828 0.13281-0.94922 0.48047-1.2969l5.5391-5.5781c2.4141-2.4141 3.7031-5.6211 3.7031-9.0352l-0.015625-24.043c0-1.8906-0.72266-3.6719-2.0586-5.0117l-11.883-11.988c0.042968-0.16016 0.082031-0.32812 0.082031-0.5l-0.003907-15.973c0-4.0664-3.3711-7.3789-7.4375-7.3789h-40.242c-2.6914 0-5.0469 1.4531-6.3359 3.6094l-2.1445-2.1445c-1.4102-1.4062-3.2891-2.1836-5.2969-2.1836-2.0039 0-3.8867 0.77734-5.2969 2.1875-2.9219 2.9219-2.9219 7.6719 0 10.59zm10.531 40.219c0.050781 0.85547-0.23438 1.6797-0.80078 2.3125-0.56641 0.63281-1.3477 1.0078-2.2031 1.0586-0.85547 0.050782-1.6797-0.23437-2.3125-0.80078l-3.1914-2.8438c-1.3164-1.1758-1.4336-3.1992-0.25781-4.5156 0.56641-0.63281 1.3477-1.0078 2.2031-1.0586 0.0625-0.003906 0.12891-0.003906 0.1875-0.003906 0.78906 0 1.5352 0.28125 2.1211 0.80469l3.1914 2.8438c0.64062 0.5625 1.0156 1.3438 1.0625 2.2031zm0-13.742c0.050781 0.85547-0.23438 1.6797-0.80078 2.3125-0.56641 0.63281-1.3477 1.0078-2.2031 1.0586s-1.6797-0.23438-2.3125-0.80078l-3.1914-2.8438c-1.3164-1.1758-1.4336-3.1992-0.25781-4.5156 1.1758-1.3164 3.1992-1.4336 4.5156-0.25781l3.1914 2.8438c0.63672 0.5625 1.0117 1.3477 1.0586 2.2031zm-1.0117-15.918c0.625 0.55859 0.99609 1.332 1.0469 2.1797 0.046875 0.84766-0.23047 1.6562-0.78906 2.2852l-0.050781 0.058594c-1.1602 1.3008-3.1602 1.4141-4.4609 0.25391l-3.25-2.8984c-1.3008-1.1602-1.4141-3.1602-0.25781-4.4609l0.050781-0.058593c0.55859-0.625 1.332-0.99609 2.1797-1.0469 0.0625-0.003906 0.125-0.003906 0.1875-0.003906 0.77734 0 1.5156 0.27734 2.0938 0.79688z"/>
  <path stroke="white" fill="white" d="m56.156 17.418c0-1.1016-0.89062-1.9805-1.9922-1.9805h-8.3672c-1.1016 0-1.9922 0.87891-1.9922 1.9805 0 1.1016 0.89062 1.9805 1.9922 1.9805h8.3672c1.1016 0 1.9922-0.87891 1.9922-1.9805z"/>
  <path stroke="white" fill="white" d="m33.57 72.68c-1.1016 0-1.9922 0.87891-1.9922 1.9805 0 1.1016 0.89062 1.9805 1.9922 1.9805h23.984c1.1016 0 1.9922-0.87891 1.9922-1.9805 0-1.1016-0.89062-1.9805-1.9922-1.9805z"/>
 </g>
</svg>